<svg width="24" height="24" viewBox="0 0 24 24" fill="none" xmlns="http://www.w3.org/2000/svg">
<g id="git-compare">
<g id="Group 8">
<path id="Vector" d="M16.6667 19C17.9554 19 19 17.9553 19 16.6666C19 15.378 17.9554 14.3333 16.6667 14.3333C15.378 14.3333 14.3334 15.378 14.3334 16.6666C14.3334 17.9553 15.378 19 16.6667 19Z" stroke="#1B1B1B" stroke-width="1.5" stroke-linecap="round" stroke-linejoin="round"/>
<path id="Vector_2" d="M7.33333 9.66667C8.622 9.66667 9.66667 8.622 9.66667 7.33333C9.66667 6.04467 8.622 5 7.33333 5C6.04467 5 5 6.04467 5 7.33333C5 8.622 6.04467 9.66667 7.33333 9.66667Z" stroke="#1B1B1B" stroke-width="1.5" stroke-linecap="round" stroke-linejoin="round"/>
<path id="Vector_3" d="M12.7778 7.3333H15.1112C15.5237 7.3333 15.9194 7.49719 16.2111 7.78891C16.5028 8.08063 16.6667 8.47629 16.6667 8.88885V14.3333" stroke="#1B1B1B" stroke-width="1.5" stroke-linecap="round" stroke-linejoin="round"/>
<path id="Vector_4" d="M11.2223 16.6667H8.88893C8.47637 16.6667 8.08071 16.5028 7.78899 16.2111C7.49726 15.9194 7.33337 15.5237 7.33337 15.1111V9.6667" stroke="#1B1B1B" stroke-width="1.5" stroke-linecap="round" stroke-linejoin="round"/>
</g>
</g>
</svg>
